<svg width="28" height="29" viewBox="0 0 28 29" fill="none" xmlns="http://www.w3.org/2000/svg">
<path d="M9.09968 2.83334H18.8997C22.633 2.83334 25.6663 5.86668 25.6663 9.60001V19.4C25.6663 21.1946 24.9534 22.9158 23.6844 24.1848C22.4154 25.4538 20.6943 26.1667 18.8997 26.1667H9.09968C5.36634 26.1667 2.33301 23.1333 2.33301 19.4V9.60001C2.33301 7.80538 3.04592 6.08425 4.31492 4.81525C5.58391 3.54626 7.30504 2.83334 9.09968 2.83334ZM8.86634 5.16668C7.75243 5.16668 6.68415 5.60918 5.89649 6.39683C5.10884 7.18448 4.66634 8.25277 4.66634 9.36668V19.6333C4.66634 21.955 6.54467 23.8333 8.86634 23.8333H19.133C20.2469 23.8333 21.3152 23.3908 22.1029 22.6032C22.8905 21.8155 23.333 20.7473 23.333 19.6333V9.36668C23.333 7.04501 21.4547 5.16668 19.133 5.16668H8.86634ZM20.1247 6.91668C20.5114 6.91668 20.8824 7.07032 21.1559 7.34381C21.4294 7.6173 21.583 7.98824 21.583 8.37501C21.583 8.76178 21.4294 9.13272 21.1559 9.40621C20.8824 9.6797 20.5114 9.83334 20.1247 9.83334C19.7379 9.83334 19.367 9.6797 19.0935 9.40621C18.82 9.13272 18.6663 8.76178 18.6663 8.37501C18.6663 7.98824 18.82 7.6173 19.0935 7.34381C19.367 7.07032 19.7379 6.91668 20.1247 6.91668ZM13.9997 8.66668C15.5468 8.66668 17.0305 9.28126 18.1245 10.3752C19.2184 11.4692 19.833 12.9529 19.833 14.5C19.833 16.0471 19.2184 17.5308 18.1245 18.6248C17.0305 19.7188 15.5468 20.3333 13.9997 20.3333C12.4526 20.3333 10.9688 19.7188 9.87489 18.6248C8.78092 17.5308 8.16634 16.0471 8.16634 14.5C8.16634 12.9529 8.78092 11.4692 9.87489 10.3752C10.9688 9.28126 12.4526 8.66668 13.9997 8.66668ZM13.9997 11C13.0714 11 12.1812 11.3688 11.5248 12.0251C10.8684 12.6815 10.4997 13.5718 10.4997 14.5C10.4997 15.4283 10.8684 16.3185 11.5248 16.9749C12.1812 17.6313 13.0714 18 13.9997 18C14.9279 18 15.8182 17.6313 16.4745 16.9749C17.1309 16.3185 17.4997 15.4283 17.4997 14.5C17.4997 13.5718 17.1309 12.6815 16.4745 12.0251C15.8182 11.3688 14.9279 11 13.9997 11Z" fill="white"/>
</svg>
