<svg width="29" height="28" viewBox="0 0 29 28" fill="none" xmlns="http://www.w3.org/2000/svg">
<circle cx="14.4355" cy="14" r="14" fill="#4771B0"/>
<path d="M10.6915 19.128C10.3609 19.128 10.1049 19.0373 9.92355 18.856C9.75288 18.664 9.66755 18.4027 9.66755 18.072V8.76C9.66755 8.41867 9.75821 8.16267 9.93955 7.992C10.1209 7.81067 10.3769 7.72 10.7075 7.72H14.5635C15.8009 7.72 16.7555 8.02933 17.4275 8.648C18.0995 9.26667 18.4355 10.1307 18.4355 11.24C18.4355 12.3493 18.0995 13.2187 17.4275 13.848C16.7555 14.4667 15.8009 14.776 14.5635 14.776H11.7155V18.072C11.7155 18.4027 11.6302 18.664 11.4595 18.856C11.2889 19.0373 11.0329 19.128 10.6915 19.128ZM11.7155 13.16H14.2435C14.9689 13.16 15.5182 13 15.8915 12.68C16.2649 12.3493 16.4515 11.8693 16.4515 11.24C16.4515 10.6107 16.2649 10.136 15.8915 9.816C15.5182 9.496 14.9689 9.336 14.2435 9.336H11.7155V13.16Z" fill="white"/>
</svg>
