<svg width="28" height="29" viewBox="0 0 28 29" fill="none" xmlns="http://www.w3.org/2000/svg">
<path d="M2.91602 5.75H25.0827C26.0627 5.75 26.8327 6.50833 26.8327 7.5V20.9167C26.8327 21.9083 26.0627 22.6667 25.0827 22.6667H2.91602C1.92435 22.6667 1.16602 21.9083 1.16602 20.9167V7.5C1.16602 6.50833 1.92435 5.75 2.91602 5.75ZM11.3277 10.4167V18L17.9893 14.15L11.3277 10.4167ZM20.1243 25H7.75768C7.40768 25 7.17435 24.7667 7.17435 24.4167C7.17435 24.0667 7.40768 23.8333 7.75768 23.8333H20.241C20.591 23.8333 20.8243 24.0667 20.8243 24.4167C20.8243 24.7667 20.4743 25 20.1243 25Z" fill="white"/>
</svg>
